<svg xmlns="http://www.w3.org/2000/svg" width="1920" height="1080"><path d="M-186,-205L140,-205L606,-262Z" fill="#898989" stroke="#898989" stroke-width="1.51"/><path d="M1204,1290L1044,1303L1634,1330Z" fill="#202020" stroke="#202020" stroke-width="1.51"/><path d="M1044,1303L869,1328L1634,1330Z" fill="#232323" stroke="#232323" stroke-width="1.51"/><path d="M1042,-265L1282,-264L1752,-265Z" fill="#636363" stroke="#636363" stroke-width="1.51"/><path d="M1282,-264L1624,-252L1752,-265Z" fill="#5d5d5d" stroke="#5d5d5d" stroke-width="1.51"/><path d="M1752,-265L1920,-180L2051,-199Z" fill="#505050" stroke="#505050" stroke-width="1.51"/><path d="M1954,1260L1793,1314L2058,1255Z" fill="#101010" stroke="#101010" stroke-width="1.51"/><path d="M2069,242L2043,416L2071,564Z" fill="#2f2f2f" stroke="#2f2f2f" stroke-width="1.51"/><path d="M1968,1132L2058,1255L2073,1093Z" fill="#121212" stroke="#121212" stroke-width="1.51"/><path d="M1941,-34L2047,110L2078,-86Z" fill="#434343" stroke="#434343" stroke-width="1.51"/><path d="M2047,110L2069,242L2078,-86Z" fill="#3d3d3d" stroke="#3d3d3d" stroke-width="1.51"/><path d="M1961,1016L2073,1093L2094,951Z" fill="#181818" stroke="#181818" stroke-width="1.51"/><path d="M2094,951L2073,1093L2109,878Z" fill="#181818" stroke="#181818" stroke-width="1.51"/><path d="M2073,1093L2058,1255L2109,878Z" fill="#151515" stroke="#151515" stroke-width="1.51"/><path d="M2071,564L1899,642L2122,739Z" fill="#272727" stroke="#272727" stroke-width="1.51"/><path d="M1899,642L1899,800L2122,739Z" fill="#252525" stroke="#252525" stroke-width="1.51"/><path d="M1899,800L2109,878L2122,739Z" fill="#202020" stroke="#202020" stroke-width="1.51"/><path d="M2078,-86L2069,242L2122,739Z" fill="#343434" stroke="#343434" stroke-width="1.51"/><path d="M2069,242L2071,564L2122,739Z" fill="#2a2a2a" stroke="#2a2a2a" stroke-width="1.51"/><path d="M2043,416L1979,537L2071,564Z" fill="#2c2c2c" stroke="#2c2c2c" stroke-width="1.51"/><path d="M1899,800L2094,951L2109,878Z" fill="#1d1d1d" stroke="#1d1d1d" stroke-width="1.51"/><path d="M1889,333L2043,416L2069,242Z" fill="#353535" stroke="#353535" stroke-width="1.51"/><path d="M1979,537L1899,642L2071,564Z" fill="#2a2a2a" stroke="#2a2a2a" stroke-width="1.51"/><path d="M1899,800L1961,1016L2094,951Z" fill="#1d1d1d" stroke="#1d1d1d" stroke-width="1.51"/><path d="M1941,-34L1900,36L2047,110Z" fill="#424242" stroke="#424242" stroke-width="1.51"/><path d="M1968,1132L1954,1260L2058,1255Z" fill="#111111" stroke="#111111" stroke-width="1.51"/><path d="M1894,233L1889,333L2069,242Z" fill="#383838" stroke="#383838" stroke-width="1.51"/><path d="M2047,110L1894,233L2069,242Z" fill="#3a3a3a" stroke="#3a3a3a" stroke-width="1.51"/><path d="M2051,-199L1920,-180L2078,-86Z" fill="#4a4a4a" stroke="#4a4a4a" stroke-width="1.51"/><path d="M1920,-180L1941,-34L2078,-86Z" fill="#484848" stroke="#484848" stroke-width="1.51"/><path d="M1961,1016L1968,1132L2073,1093Z" fill="#171717" stroke="#171717" stroke-width="1.51"/><path d="M1900,36L1894,233L2047,110Z" fill="#3f3f3f" stroke="#3f3f3f" stroke-width="1.51"/><path d="M1840,495L1979,537L2043,416Z" fill="#2f2f2f" stroke="#2f2f2f" stroke-width="1.51"/><path d="M1889,333L1840,495L2043,416Z" fill="#333333" stroke="#333333" stroke-width="1.51"/><path d="M1899,800L1835,803L1961,1016Z" fill="#212121" stroke="#212121" stroke-width="1.51"/><path d="M1835,803L1743,952L1961,1016Z" fill="#212121" stroke="#212121" stroke-width="1.51"/><path d="M1961,1016L1757,1098L1968,1132Z" fill="#191919" stroke="#191919" stroke-width="1.51"/><path d="M1757,1098L1954,1260L1968,1132Z" fill="#161616" stroke="#161616" stroke-width="1.51"/><path d="M1840,495L1899,642L1979,537Z" fill="#2d2d2d" stroke="#2d2d2d" stroke-width="1.51"/><path d="M1771,92L1894,233L1900,36Z" fill="#424242" stroke="#424242" stroke-width="1.51"/><path d="M1757,1098L1793,1314L1954,1260Z" fill="#161616" stroke="#161616" stroke-width="1.51"/><path d="M1743,952L1757,1098L1961,1016Z" fill="#1d1d1d" stroke="#1d1d1d" stroke-width="1.51"/><path d="M1920,-180L1737,-106L1941,-34Z" fill="#4c4c4c" stroke="#4c4c4c" stroke-width="1.51"/><path d="M1835,803L1899,800L1899,642Z" fill="#262626" stroke="#262626" stroke-width="1.51"/><path d="M1737,-106L1900,36L1941,-34Z" fill="#494949" stroke="#494949" stroke-width="1.51"/><path d="M1832,291L1889,333L1894,233Z" fill="#3b3b3b" stroke="#3b3b3b" stroke-width="1.51"/><path d="M1740,652L1835,803L1899,642Z" fill="#2a2a2a" stroke="#2a2a2a" stroke-width="1.51"/><path d="M1752,-265L1737,-106L1920,-180Z" fill="#525252" stroke="#525252" stroke-width="1.51"/><path d="M1743,340L1840,495L1889,333Z" fill="#373737" stroke="#373737" stroke-width="1.51"/><path d="M1771,92L1832,291L1894,233Z" fill="#3f3f3f" stroke="#3f3f3f" stroke-width="1.51"/><path d="M1840,495L1740,652L1899,642Z" fill="#2e2e2e" stroke="#2e2e2e" stroke-width="1.51"/><path d="M1737,-106L1771,92L1900,36Z" fill="#494949" stroke="#494949" stroke-width="1.51"/><path d="M1832,291L1743,340L1889,333Z" fill="#3a3a3a" stroke="#3a3a3a" stroke-width="1.51"/><path d="M1635,389L1627,506L1743,340Z" fill="#3b3b3b" stroke="#3b3b3b" stroke-width="1.51"/><path d="M1737,-106L1653,36L1771,92Z" fill="#4b4b4b" stroke="#4b4b4b" stroke-width="1.51"/><path d="M1771,92L1633,281L1832,291Z" fill="#414141" stroke="#414141" stroke-width="1.51"/><path d="M1633,281L1743,340L1832,291Z" fill="#3e3e3e" stroke="#3e3e3e" stroke-width="1.51"/><path d="M1740,652L1672,701L1835,803Z" fill="#2b2b2b" stroke="#2b2b2b" stroke-width="1.51"/><path d="M1743,340L1627,506L1840,495Z" fill="#373737" stroke="#373737" stroke-width="1.51"/><path d="M1627,506L1740,652L1840,495Z" fill="#333333" stroke="#333333" stroke-width="1.51"/><path d="M1672,701L1582,788L1743,952Z" fill="#2a2a2a" stroke="#2a2a2a" stroke-width="1.51"/><path d="M1757,1098L1593,1164L1793,1314Z" fill="#1a1a1a" stroke="#1a1a1a" stroke-width="1.51"/><path d="M1672,701L1743,952L1835,803Z" fill="#272727" stroke="#272727" stroke-width="1.51"/><path d="M1351,1253L1204,1290L1634,1330Z" fill="#1e1e1e" stroke="#1e1e1e" stroke-width="1.51"/><path d="M1687,-102L1653,36L1737,-106Z" fill="#4f4f4f" stroke="#4f4f4f" stroke-width="1.51"/><path d="M1687,-102L1737,-106L1752,-265Z" fill="#535353" stroke="#535353" stroke-width="1.51"/><path d="M1743,952L1678,1002L1757,1098Z" fill="#202020" stroke="#202020" stroke-width="1.51"/><path d="M1593,1164L1634,1330L1793,1314Z" fill="#181818" stroke="#181818" stroke-width="1.51"/><path d="M1282,-264L1507,-210L1624,-252Z" fill="#5f5f5f" stroke="#5f5f5f" stroke-width="1.51"/><path d="M1624,-252L1687,-102L1752,-265Z" fill="#565656" stroke="#565656" stroke-width="1.51"/><path d="M1653,36L1633,281L1771,92Z" fill="#464646" stroke="#464646" stroke-width="1.51"/><path d="M1530,114L1633,281L1653,36Z" fill="#494949" stroke="#494949" stroke-width="1.51"/><path d="M1582,788L1678,1002L1743,952Z" fill="#252525" stroke="#252525" stroke-width="1.51"/><path d="M1678,1002L1593,1164L1757,1098Z" fill="#1f1f1f" stroke="#1f1f1f" stroke-width="1.51"/><path d="M1627,506L1672,701L1740,652Z" fill="#323232" stroke="#323232" stroke-width="1.51"/><path d="M1488,1255L1351,1253L1634,1330Z" fill="#1c1c1c" stroke="#1c1c1c" stroke-width="1.51"/><path d="M1633,281L1635,389L1743,340Z" fill="#3e3e3e" stroke="#3e3e3e" stroke-width="1.51"/><path d="M1627,506L1535,592L1672,701Z" fill="#343434" stroke="#343434" stroke-width="1.51"/><path d="M1582,788L1487,878L1678,1002Z" fill="#292929" stroke="#292929" stroke-width="1.51"/><path d="M1512,1097L1593,1164L1678,1002Z" fill="#212121" stroke="#212121" stroke-width="1.51"/><path d="M1624,-252L1507,-210L1687,-102Z" fill="#585858" stroke="#585858" stroke-width="1.51"/><path d="M1507,-210L1511,-47L1687,-102Z" fill="#565656" stroke="#565656" stroke-width="1.51"/><path d="M1511,-47L1653,36L1687,-102Z" fill="#515151" stroke="#515151" stroke-width="1.51"/><path d="M1487,878L1512,1097L1678,1002Z" fill="#252525" stroke="#252525" stroke-width="1.51"/><path d="M1530,114L1533,289L1633,281Z" fill="#464646" stroke="#464646" stroke-width="1.51"/><path d="M1593,1164L1488,1255L1634,1330Z" fill="#1b1b1b" stroke="#1b1b1b" stroke-width="1.51"/><path d="M1484,725L1582,788L1672,701Z" fill="#2f2f2f" stroke="#2f2f2f" stroke-width="1.51"/><path d="M1535,592L1484,725L1672,701Z" fill="#323232" stroke="#323232" stroke-width="1.51"/><path d="M1487,878L1429,1015L1512,1097Z" fill="#282828" stroke="#282828" stroke-width="1.51"/><path d="M1633,281L1534,352L1635,389Z" fill="#404040" stroke="#404040" stroke-width="1.51"/><path d="M1511,-47L1530,114L1653,36Z" fill="#4f4f4f" stroke="#4f4f4f" stroke-width="1.51"/><path d="M1533,289L1534,352L1633,281Z" fill="#424242" stroke="#424242" stroke-width="1.51"/><path d="M1534,352L1627,506L1635,389Z" fill="#3d3d3d" stroke="#3d3d3d" stroke-width="1.51"/><path d="M1534,352L1535,592L1627,506Z" fill="#3a3a3a" stroke="#3a3a3a" stroke-width="1.51"/><path d="M1534,352L1353,571L1535,592Z" fill="#3c3c3c" stroke="#3c3c3c" stroke-width="1.51"/><path d="M1512,1097L1488,1255L1593,1164Z" fill="#1f1f1f" stroke="#1f1f1f" stroke-width="1.51"/><path d="M1303,431L1353,571L1534,352Z" fill="#414141" stroke="#414141" stroke-width="1.51"/><path d="M1484,725L1487,878L1582,788Z" fill="#2f2f2f" stroke="#2f2f2f" stroke-width="1.51"/><path d="M1507,-210L1327,-16L1511,-47Z" fill="#585858" stroke="#585858" stroke-width="1.51"/><path d="M1327,-16L1314,56L1511,-47Z" fill="#565656" stroke="#565656" stroke-width="1.51"/><path d="M1327,1176L1488,1255L1512,1097Z" fill="#222222" stroke="#222222" stroke-width="1.51"/><path d="M1511,-47L1314,56L1530,114Z" fill="#525252" stroke="#525252" stroke-width="1.51"/><path d="M1530,114L1316,189L1533,289Z" fill="#4a4a4a" stroke="#4a4a4a" stroke-width="1.51"/><path d="M1316,189L1303,431L1533,289Z" fill="#484848" stroke="#484848" stroke-width="1.51"/><path d="M1533,289L1303,431L1534,352Z" fill="#434343" stroke="#434343" stroke-width="1.51"/><path d="M1389,716L1484,725L1535,592Z" fill="#353535" stroke="#353535" stroke-width="1.51"/><path d="M1353,571L1389,716L1535,592Z" fill="#383838" stroke="#383838" stroke-width="1.51"/><path d="M1314,56L1316,189L1530,114Z" fill="#505050" stroke="#505050" stroke-width="1.51"/><path d="M1389,716L1368,870L1484,725Z" fill="#323232" stroke="#323232" stroke-width="1.51"/><path d="M1484,725L1368,870L1487,878Z" fill="#303030" stroke="#303030" stroke-width="1.51"/><path d="M1327,1176L1351,1253L1488,1255Z" fill="#212121" stroke="#212121" stroke-width="1.51"/><path d="M1240,-99L1327,-16L1507,-210Z" fill="#5c5c5c" stroke="#5c5c5c" stroke-width="1.51"/><path d="M1282,-264L1240,-99L1507,-210Z" fill="#606060" stroke="#606060" stroke-width="1.51"/><path d="M1429,1015L1327,1176L1512,1097Z" fill="#252525" stroke="#252525" stroke-width="1.51"/><path d="M1368,870L1429,1015L1487,878Z" fill="#2c2c2c" stroke="#2c2c2c" stroke-width="1.51"/><path d="M692,1295L383,1330L869,1328Z" fill="#323232" stroke="#323232" stroke-width="1.51"/><path d="M1217,361L1303,431L1316,189Z" fill="#4a4a4a" stroke="#4a4a4a" stroke-width="1.51"/><path d="M1368,870L1291,1026L1429,1015Z" fill="#2c2c2c" stroke="#2c2c2c" stroke-width="1.51"/><path d="M1291,1026L1327,1176L1429,1015Z" fill="#282828" stroke="#282828" stroke-width="1.51"/><path d="M1231,204L1217,361L1316,189Z" fill="#4e4e4e" stroke="#4e4e4e" stroke-width="1.51"/><path d="M1238,673L1195,856L1368,870Z" fill="#363636" stroke="#363636" stroke-width="1.51"/><path d="M1238,673L1368,870L1389,716Z" fill="#363636" stroke="#363636" stroke-width="1.51"/><path d="M1353,571L1238,673L1389,716Z" fill="#3a3a3a" stroke="#3a3a3a" stroke-width="1.51"/><path d="M140,-205L235,-201L606,-262Z" fill="#848484" stroke="#848484" stroke-width="1.51"/><path d="M1303,431L1219,531L1353,571Z" fill="#414141" stroke="#414141" stroke-width="1.51"/><path d="M1195,856L1291,1026L1368,870Z" fill="#303030" stroke="#303030" stroke-width="1.51"/><path d="M1195,856L1173,979L1291,1026Z" fill="#313131" stroke="#313131" stroke-width="1.51"/><path d="M1327,1176L1211,1196L1351,1253Z" fill="#242424" stroke="#242424" stroke-width="1.51"/><path d="M1219,531L1238,673L1353,571Z" fill="#3e3e3e" stroke="#3e3e3e" stroke-width="1.51"/><path d="M1211,1196L1204,1290L1351,1253Z" fill="#242424" stroke="#242424" stroke-width="1.51"/><path d="M1167,-167L1240,-99L1282,-264Z" fill="#636363" stroke="#636363" stroke-width="1.51"/><path d="M1172,136L1231,204L1314,56Z" fill="#545454" stroke="#545454" stroke-width="1.51"/><path d="M1314,56L1231,204L1316,189Z" fill="#525252" stroke="#525252" stroke-width="1.51"/><path d="M1291,1026L1211,1196L1327,1176Z" fill="#282828" stroke="#282828" stroke-width="1.51"/><path d="M1240,-99L1314,56L1327,-16Z" fill="#5a5a5a" stroke="#5a5a5a" stroke-width="1.51"/><path d="M1240,-99L1172,136L1314,56Z" fill="#595959" stroke="#595959" stroke-width="1.51"/><path d="M1173,979L1211,1196L1291,1026Z" fill="#2c2c2c" stroke="#2c2c2c" stroke-width="1.51"/><path d="M1217,361L1219,531L1303,431Z" fill="#464646" stroke="#464646" stroke-width="1.51"/><path d="M1020,-62L1172,136L1240,-99Z" fill="#5e5e5e" stroke="#5e5e5e" stroke-width="1.51"/><path d="M1042,-265L1167,-167L1282,-264Z" fill="#686868" stroke="#686868" stroke-width="1.51"/><path d="M1020,-62L1002,52L1172,136Z" fill="#5e5e5e" stroke="#5e5e5e" stroke-width="1.51"/><path d="M1173,979L1006,1117L1211,1196Z" fill="#2d2d2d" stroke="#2d2d2d" stroke-width="1.51"/><path d="M1217,361L1081,368L1219,531Z" fill="#494949" stroke="#494949" stroke-width="1.51"/><path d="M1081,368L1217,361L1231,204Z" fill="#4e4e4e" stroke="#4e4e4e" stroke-width="1.51"/><path d="M1063,873L1195,856L1238,673Z" fill="#393939" stroke="#393939" stroke-width="1.51"/><path d="M1002,645L1063,873L1238,673Z" fill="#3e3e3e" stroke="#3e3e3e" stroke-width="1.51"/><path d="M1219,531L1060,555L1238,673Z" fill="#414141" stroke="#414141" stroke-width="1.51"/><path d="M1167,-167L1020,-62L1240,-99Z" fill="#636363" stroke="#636363" stroke-width="1.51"/><path d="M1081,368L1060,555L1219,531Z" fill="#474747" stroke="#474747" stroke-width="1.51"/><path d="M1172,136L1081,368L1231,204Z" fill="#525252" stroke="#525252" stroke-width="1.51"/><path d="M1060,555L1002,645L1238,673Z" fill="#424242" stroke="#424242" stroke-width="1.51"/><path d="M992,289L1081,368L1172,136Z" fill="#535353" stroke="#535353" stroke-width="1.51"/><path d="M1044,1303L1204,1290L1211,1196Z" fill="#262626" stroke="#262626" stroke-width="1.51"/><path d="M1063,873L1173,979L1195,856Z" fill="#353535" stroke="#353535" stroke-width="1.51"/><path d="M1006,1117L1044,1303L1211,1196Z" fill="#2a2a2a" stroke="#2a2a2a" stroke-width="1.51"/><path d="M996,1019L1006,1117L1173,979Z" fill="#313131" stroke="#313131" stroke-width="1.51"/><path d="M1002,52L992,289L1172,136Z" fill="#595959" stroke="#595959" stroke-width="1.51"/><path d="M1063,873L996,1019L1173,979Z" fill="#353535" stroke="#353535" stroke-width="1.51"/><path d="M1042,-265L1020,-62L1167,-167Z" fill="#686868" stroke="#686868" stroke-width="1.51"/><path d="M893,-264L1020,-62L1042,-265Z" fill="#6c6c6c" stroke="#6c6c6c" stroke-width="1.51"/><path d="M1006,1117L878,1165L1044,1303Z" fill="#2d2d2d" stroke="#2d2d2d" stroke-width="1.51"/><path d="M1002,645L902,823L1063,873Z" fill="#3e3e3e" stroke="#3e3e3e" stroke-width="1.51"/><path d="M992,289L830,363L1081,368Z" fill="#535353" stroke="#535353" stroke-width="1.51"/><path d="M830,363L919,565L1081,368Z" fill="#4f4f4f" stroke="#4f4f4f" stroke-width="1.51"/><path d="M919,565L1060,555L1081,368Z" fill="#4a4a4a" stroke="#4a4a4a" stroke-width="1.51"/><path d="M836,105L992,289L1002,52Z" fill="#5d5d5d" stroke="#5d5d5d" stroke-width="1.51"/><path d="M864,945L996,1019L1063,873Z" fill="#383838" stroke="#383838" stroke-width="1.51"/><path d="M902,823L864,945L1063,873Z" fill="#3c3c3c" stroke="#3c3c3c" stroke-width="1.51"/><path d="M919,565L1002,645L1060,555Z" fill="#474747" stroke="#474747" stroke-width="1.51"/><path d="M836,105L862,289L992,289Z" fill="#5a5a5a" stroke="#5a5a5a" stroke-width="1.51"/><path d="M893,-264L829,-74L1020,-62Z" fill="#6b6b6b" stroke="#6b6b6b" stroke-width="1.51"/><path d="M878,1165L869,1328L1044,1303Z" fill="#2c2c2c" stroke="#2c2c2c" stroke-width="1.51"/><path d="M862,289L830,363L992,289Z" fill="#565656" stroke="#565656" stroke-width="1.51"/><path d="M834,714L902,823L1002,645Z" fill="#434343" stroke="#434343" stroke-width="1.51"/><path d="M829,-74L1002,52L1020,-62Z" fill="#656565" stroke="#656565" stroke-width="1.51"/><path d="M829,-74L836,105L1002,52Z" fill="#646464" stroke="#646464" stroke-width="1.51"/><path d="M996,1019L878,1165L1006,1117Z" fill="#323232" stroke="#323232" stroke-width="1.51"/><path d="M790,1040L878,1165L996,1019Z" fill="#363636" stroke="#363636" stroke-width="1.51"/><path d="M919,565L834,714L1002,645Z" fill="#474747" stroke="#474747" stroke-width="1.51"/><path d="M864,945L790,1040L996,1019Z" fill="#383838" stroke="#383838" stroke-width="1.51"/><path d="M836,105L742,250L862,289Z" fill="#5e5e5e" stroke="#5e5e5e" stroke-width="1.51"/><path d="M606,-262L779,-210L893,-264Z" fill="#767676" stroke="#767676" stroke-width="1.51"/><path d="M779,-210L829,-74L893,-264Z" fill="#707070" stroke="#707070" stroke-width="1.51"/><path d="M748,537L834,714L919,565Z" fill="#4b4b4b" stroke="#4b4b4b" stroke-width="1.51"/><path d="M830,363L748,537L919,565Z" fill="#505050" stroke="#505050" stroke-width="1.51"/><path d="M790,1040L762,1112L878,1165Z" fill="#363636" stroke="#363636" stroke-width="1.51"/><path d="M692,1295L869,1328L878,1165Z" fill="#303030" stroke="#303030" stroke-width="1.51"/><path d="M778,787L864,945L902,823Z" fill="#404040" stroke="#404040" stroke-width="1.51"/><path d="M834,714L778,787L902,823Z" fill="#444444" stroke="#444444" stroke-width="1.51"/><path d="M748,537L787,718L834,714Z" fill="#4a4a4a" stroke="#4a4a4a" stroke-width="1.51"/><path d="M762,1112L692,1295L878,1165Z" fill="#343434" stroke="#343434" stroke-width="1.51"/><path d="M779,-210L755,-95L829,-74Z" fill="#6f6f6f" stroke="#6f6f6f" stroke-width="1.51"/><path d="M774,349L748,537L830,363Z" fill="#555555" stroke="#555555" stroke-width="1.51"/><path d="M829,-74L755,-95L836,105Z" fill="#6a6a6a" stroke="#6a6a6a" stroke-width="1.51"/><path d="M755,-95L701,124L836,105Z" fill="#676767" stroke="#676767" stroke-width="1.51"/><path d="M774,349L830,363L862,289Z" fill="#585858" stroke="#585858" stroke-width="1.51"/><path d="M778,787L790,1040L864,945Z" fill="#3d3d3d" stroke="#3d3d3d" stroke-width="1.51"/><path d="M701,124L742,250L836,105Z" fill="#626262" stroke="#626262" stroke-width="1.51"/><path d="M742,250L774,349L862,289Z" fill="#5b5b5b" stroke="#5b5b5b" stroke-width="1.51"/><path d="M778,787L630,792L790,1040Z" fill="#434343" stroke="#434343" stroke-width="1.51"/><path d="M787,718L778,787L834,714Z" fill="#464646" stroke="#464646" stroke-width="1.51"/><path d="M630,105L701,124L755,-95Z" fill="#6a6a6a" stroke="#6a6a6a" stroke-width="1.51"/><path d="M615,1235L692,1295L762,1112Z" fill="#353535" stroke="#353535" stroke-width="1.51"/><path d="M626,517L748,537L774,349Z" fill="#555555" stroke="#555555" stroke-width="1.51"/><path d="M570,352L626,517L774,349Z" fill="#595959" stroke="#595959" stroke-width="1.51"/><path d="M748,537L596,643L787,718Z" fill="#4e4e4e" stroke="#4e4e4e" stroke-width="1.51"/><path d="M630,792L778,787L787,718Z" fill="#484848" stroke="#484848" stroke-width="1.51"/><path d="M630,792L541,1033L790,1040Z" fill="#424242" stroke="#424242" stroke-width="1.51"/><path d="M541,1033L623,1098L790,1040Z" fill="#3d3d3d" stroke="#3d3d3d" stroke-width="1.51"/><path d="M623,1098L762,1112L790,1040Z" fill="#3a3a3a" stroke="#3a3a3a" stroke-width="1.51"/><path d="M596,643L630,792L787,718Z" fill="#4c4c4c" stroke="#4c4c4c" stroke-width="1.51"/><path d="M623,1098L615,1235L762,1112Z" fill="#393939" stroke="#393939" stroke-width="1.51"/><path d="M606,-262L755,-95L779,-210Z" fill="#757575" stroke="#757575" stroke-width="1.51"/><path d="M533,-101L630,105L755,-95Z" fill="#707070" stroke="#707070" stroke-width="1.51"/><path d="M742,250L570,352L774,349Z" fill="#5d5d5d" stroke="#5d5d5d" stroke-width="1.51"/><path d="M626,517L596,643L748,537Z" fill="#525252" stroke="#525252" stroke-width="1.51"/><path d="M606,-262L533,-101L755,-95Z" fill="#767676" stroke="#767676" stroke-width="1.51"/><path d="M701,124L535,230L742,250Z" fill="#636363" stroke="#636363" stroke-width="1.51"/><path d="M630,105L535,230L701,124Z" fill="#676767" stroke="#676767" stroke-width="1.51"/><path d="M535,230L570,352L742,250Z" fill="#616161" stroke="#616161" stroke-width="1.51"/><path d="M615,1235L383,1330L692,1295Z" fill="#363636" stroke="#363636" stroke-width="1.51"/><path d="M235,-201L415,-160L606,-262Z" fill="#808080" stroke="#808080" stroke-width="1.51"/><path d="M475,1135L615,1235L623,1098Z" fill="#3b3b3b" stroke="#3b3b3b" stroke-width="1.51"/><path d="M570,352L481,384L626,517Z" fill="#5c5c5c" stroke="#5c5c5c" stroke-width="1.51"/><path d="M481,384L468,506L626,517Z" fill="#5b5b5b" stroke="#5b5b5b" stroke-width="1.51"/><path d="M468,506L596,643L626,517Z" fill="#565656" stroke="#565656" stroke-width="1.51"/><path d="M463,735L394,864L630,792Z" fill="#4d4d4d" stroke="#4d4d4d" stroke-width="1.51"/><path d="M394,864L440,958L630,792Z" fill="#4b4b4b" stroke="#4b4b4b" stroke-width="1.51"/><path d="M440,958L541,1033L630,792Z" fill="#464646" stroke="#464646" stroke-width="1.51"/><path d="M596,643L463,735L630,792Z" fill="#4f4f4f" stroke="#4f4f4f" stroke-width="1.51"/><path d="M472,100L535,230L630,105Z" fill="#6a6a6a" stroke="#6a6a6a" stroke-width="1.51"/><path d="M533,-101L472,100L630,105Z" fill="#6f6f6f" stroke="#6f6f6f" stroke-width="1.51"/><path d="M470,-88L472,100L533,-101Z" fill="#747474" stroke="#747474" stroke-width="1.51"/><path d="M541,1033L475,1135L623,1098Z" fill="#3f3f3f" stroke="#3f3f3f" stroke-width="1.51"/><path d="M415,-160L533,-101L606,-262Z" fill="#7b7b7b" stroke="#7b7b7b" stroke-width="1.51"/><path d="M475,1135L383,1330L615,1235Z" fill="#3a3a3a" stroke="#3a3a3a" stroke-width="1.51"/><path d="M468,506L463,735L596,643Z" fill="#545454" stroke="#545454" stroke-width="1.51"/><path d="M-186,-205L-10,-183L140,-205Z" fill="#8e8e8e" stroke="#8e8e8e" stroke-width="1.51"/><path d="M414,262L481,384L535,230Z" fill="#656565" stroke="#656565" stroke-width="1.51"/><path d="M535,230L481,384L570,352Z" fill="#626262" stroke="#626262" stroke-width="1.51"/><path d="M320,560L463,735L468,506Z" fill="#595959" stroke="#595959" stroke-width="1.51"/><path d="M415,-160L470,-88L533,-101Z" fill="#7a7a7a" stroke="#7a7a7a" stroke-width="1.51"/><path d="M472,100L414,262L535,230Z" fill="#6a6a6a" stroke="#6a6a6a" stroke-width="1.51"/><path d="M440,958L475,1135L541,1033Z" fill="#434343" stroke="#434343" stroke-width="1.51"/><path d="M323,1261L383,1330L475,1135Z" fill="#3d3d3d" stroke="#3d3d3d" stroke-width="1.51"/><path d="M320,560L275,713L463,735Z" fill="#585858" stroke="#585858" stroke-width="1.51"/><path d="M279,122L414,262L472,100Z" fill="#6e6e6e" stroke="#6e6e6e" stroke-width="1.51"/><path d="M470,-88L254,-8L472,100Z" fill="#767676" stroke="#767676" stroke-width="1.51"/><path d="M254,-8L279,122L472,100Z" fill="#757575" stroke="#757575" stroke-width="1.51"/><path d="M440,958L282,984L475,1135Z" fill="#464646" stroke="#464646" stroke-width="1.51"/><path d="M282,984L230,1108L475,1135Z" fill="#464646" stroke="#464646" stroke-width="1.51"/><path d="M287,371L468,506L481,384Z" fill="#616161" stroke="#616161" stroke-width="1.51"/><path d="M414,262L287,371L481,384Z" fill="#666666" stroke="#666666" stroke-width="1.51"/><path d="M287,371L320,560L468,506Z" fill="#606060" stroke="#606060" stroke-width="1.51"/><path d="M230,1108L323,1261L475,1135Z" fill="#424242" stroke="#424242" stroke-width="1.51"/><path d="M415,-160L254,-8L470,-88Z" fill="#7b7b7b" stroke="#7b7b7b" stroke-width="1.51"/><path d="M275,713L394,864L463,735Z" fill="#525252" stroke="#525252" stroke-width="1.51"/><path d="M275,713L280,844L394,864Z" fill="#525252" stroke="#525252" stroke-width="1.51"/><path d="M394,864L282,984L440,958Z" fill="#4b4b4b" stroke="#4b4b4b" stroke-width="1.51"/><path d="M251,291L287,371L414,262Z" fill="#6a6a6a" stroke="#6a6a6a" stroke-width="1.51"/><path d="M279,122L251,291L414,262Z" fill="#6e6e6e" stroke="#6e6e6e" stroke-width="1.51"/><path d="M235,-201L254,-8L415,-160Z" fill="#7f7f7f" stroke="#7f7f7f" stroke-width="1.51"/><path d="M323,1261L82,1318L383,1330Z" fill="#3f3f3f" stroke="#3f3f3f" stroke-width="1.51"/><path d="M280,844L282,984L394,864Z" fill="#4f4f4f" stroke="#4f4f4f" stroke-width="1.51"/><path d="M177,209L251,291L279,122Z" fill="#717171" stroke="#717171" stroke-width="1.51"/><path d="M280,844L187,860L282,984Z" fill="#515151" stroke="#515151" stroke-width="1.51"/><path d="M287,371L187,505L320,560Z" fill="#646464" stroke="#646464" stroke-width="1.51"/><path d="M187,505L275,713L320,560Z" fill="#5e5e5e" stroke="#5e5e5e" stroke-width="1.51"/><path d="M230,1108L82,1318L323,1261Z" fill="#434343" stroke="#434343" stroke-width="1.51"/><path d="M187,505L88,639L275,713Z" fill="#5f5f5f" stroke="#5f5f5f" stroke-width="1.51"/><path d="M149,1102L82,1318L230,1108Z" fill="#474747" stroke="#474747" stroke-width="1.51"/><path d="M140,-205L123,-5L235,-201Z" fill="#858585" stroke="#858585" stroke-width="1.51"/><path d="M235,-201L123,-5L254,-8Z" fill="#808080" stroke="#808080" stroke-width="1.51"/><path d="M188,140L177,209L279,122Z" fill="#747474" stroke="#747474" stroke-width="1.51"/><path d="M254,-8L188,140L279,122Z" fill="#777777" stroke="#777777" stroke-width="1.51"/><path d="M275,713L187,860L280,844Z" fill="#555555" stroke="#555555" stroke-width="1.51"/><path d="M121,999L230,1108L282,984Z" fill="#4c4c4c" stroke="#4c4c4c" stroke-width="1.51"/><path d="M187,860L121,999L282,984Z" fill="#505050" stroke="#505050" stroke-width="1.51"/><path d="M251,291L87,371L287,371Z" fill="#6c6c6c" stroke="#6c6c6c" stroke-width="1.51"/><path d="M87,371L187,505L287,371Z" fill="#696969" stroke="#696969" stroke-width="1.51"/><path d="M88,639L32,742L187,860Z" fill="#5c5c5c" stroke="#5c5c5c" stroke-width="1.51"/><path d="M121,999L149,1102L230,1108Z" fill="#4b4b4b" stroke="#4b4b4b" stroke-width="1.51"/><path d="M123,-5L188,140L254,-8Z" fill="#7b7b7b" stroke="#7b7b7b" stroke-width="1.51"/><path d="M88,639L187,860L275,713Z" fill="#5a5a5a" stroke="#5a5a5a" stroke-width="1.51"/><path d="M177,209L87,371L251,291Z" fill="#6f6f6f" stroke="#6f6f6f" stroke-width="1.51"/><path d="M-10,-183L123,-5L140,-205Z" fill="#878787" stroke="#878787" stroke-width="1.51"/><path d="M9,1247L82,1318L149,1102Z" fill="#474747" stroke="#474747" stroke-width="1.51"/><path d="M39,250L87,371L177,209Z" fill="#737373" stroke="#737373" stroke-width="1.51"/><path d="M87,371L8,392L187,505Z" fill="#6c6c6c" stroke="#6c6c6c" stroke-width="1.51"/><path d="M-58,834L121,999L187,860Z" fill="#565656" stroke="#565656" stroke-width="1.51"/><path d="M123,-5L-64,77L188,140Z" fill="#7d7d7d" stroke="#7d7d7d" stroke-width="1.51"/><path d="M-64,77L39,250L188,140Z" fill="#7a7a7a" stroke="#7a7a7a" stroke-width="1.51"/><path d="M39,250L177,209L188,140Z" fill="#757575" stroke="#757575" stroke-width="1.51"/><path d="M-36,592L88,639L187,505Z" fill="#656565" stroke="#656565" stroke-width="1.51"/><path d="M8,392L-36,592L187,505Z" fill="#696969" stroke="#696969" stroke-width="1.51"/><path d="M32,742L-58,834L187,860Z" fill="#5b5b5b" stroke="#5b5b5b" stroke-width="1.51"/><path d="M-10,-183L-29,-52L123,-5Z" fill="#878787" stroke="#878787" stroke-width="1.51"/><path d="M-62,1170L9,1247L149,1102Z" fill="#4b4b4b" stroke="#4b4b4b" stroke-width="1.51"/><path d="M121,999L-48,1044L149,1102Z" fill="#505050" stroke="#505050" stroke-width="1.51"/><path d="M-48,1044L-62,1170L149,1102Z" fill="#4f4f4f" stroke="#4f4f4f" stroke-width="1.51"/><path d="M-58,834L-48,1044L121,999Z" fill="#565656" stroke="#565656" stroke-width="1.51"/><path d="M-29,-52L-64,77L123,-5Z" fill="#838383" stroke="#838383" stroke-width="1.51"/><path d="M-58,834L-116,886L-48,1044Z" fill="#5a5a5a" stroke="#5a5a5a" stroke-width="1.51"/><path d="M9,1247L-193,1261L82,1318Z" fill="#484848" stroke="#484848" stroke-width="1.51"/><path d="M39,250L8,392L87,371Z" fill="#727272" stroke="#727272" stroke-width="1.51"/><path d="M-36,592L32,742L88,639Z" fill="#636363" stroke="#636363" stroke-width="1.51"/><path d="M-156,399L-36,592L8,392Z" fill="#6f6f6f" stroke="#6f6f6f" stroke-width="1.51"/><path d="M-36,592L-165,651L32,742Z" fill="#656565" stroke="#656565" stroke-width="1.51"/><path d="M-147,267L8,392L39,250Z" fill="#767676" stroke="#767676" stroke-width="1.51"/><path d="M-64,77L-147,267L39,250Z" fill="#7c7c7c" stroke="#7c7c7c" stroke-width="1.51"/><path d="M-156,399L-184,539L-36,592Z" fill="#6f6f6f" stroke="#6f6f6f" stroke-width="1.51"/><path d="M-165,651L-58,834L32,742Z" fill="#616161" stroke="#616161" stroke-width="1.51"/><path d="M-116,886L-149,933L-48,1044Z" fill="#595959" stroke="#595959" stroke-width="1.51"/><path d="M-147,267L-156,399L8,392Z" fill="#757575" stroke="#757575" stroke-width="1.51"/><path d="M-62,1170L-193,1261L9,1247Z" fill="#4d4d4d" stroke="#4d4d4d" stroke-width="1.51"/><path d="M-158,92L-147,267L-64,77Z" fill="#818181" stroke="#818181" stroke-width="1.51"/><path d="M-186,-205L-29,-52L-10,-183Z" fill="#8e8e8e" stroke="#8e8e8e" stroke-width="1.51"/><path d="M-163,1137L-62,1170L-48,1044Z" fill="#515151" stroke="#515151" stroke-width="1.51"/><path d="M-204,-34L-64,77L-29,-52Z" fill="#878787" stroke="#878787" stroke-width="1.51"/><path d="M-186,-205L-204,-34L-29,-52Z" fill="#8e8e8e" stroke="#8e8e8e" stroke-width="1.51"/><path d="M-204,-34L-158,92L-64,77Z" fill="#868686" stroke="#868686" stroke-width="1.51"/><path d="M-184,539L-165,651L-36,592Z" fill="#6b6b6b" stroke="#6b6b6b" stroke-width="1.51"/><path d="M-165,651L-116,886L-58,834Z" fill="#616161" stroke="#616161" stroke-width="1.51"/><path d="M-149,933L-163,1137L-48,1044Z" fill="#565656" stroke="#565656" stroke-width="1.51"/><path d="M-163,1137L-193,1261L-62,1170Z" fill="#505050" stroke="#505050" stroke-width="1.51"/><path d="M-165,651L-149,933L-116,886Z" fill="#616161" stroke="#616161" stroke-width="1.51"/><path d="M-204,-34L-156,399L-147,267Z" fill="#7f7f7f" stroke="#7f7f7f" stroke-width="1.51"/><path d="M-158,92L-204,-34L-147,267Z" fill="#848484" stroke="#848484" stroke-width="1.51"/><path d="M-204,-34L-184,539L-156,399Z" fill="#7b7b7b" stroke="#7b7b7b" stroke-width="1.51"/><path d="M-193,1261L-163,1137L-149,933Z" fill="#545454" stroke="#545454" stroke-width="1.51"/><path d="M-165,651L-193,1261L-149,933Z" fill="#5c5c5c" stroke="#5c5c5c" stroke-width="1.51"/><path d="M-184,539L-193,1261L-165,651Z" fill="#626262" stroke="#626262" stroke-width="1.51"/><path d="M-204,-34L-193,1261L-184,539Z" fill="#6e6e6e" stroke="#6e6e6e" stroke-width="1.51"/></svg>